<?xml version="1.0" standalone="no"?>
<!DOCTYPE svg PUBLIC "-//W3C//DTD SVG 20010904//EN"
 "http://www.w3.org/TR/2001/REC-SVG-20010904/DTD/svg10.dtd">
<svg version="1.0" xmlns="http://www.w3.org/2000/svg"
 width="1600.000000pt" height="1690.000000pt" viewBox="0 0 1600.000000 1690.000000"
 preserveAspectRatio="xMidYMid meet">

<g transform="translate(0.000000,1690.000000) scale(0.100000,-0.100000)"
fill="#000000" stroke="none">
<path d="M7400 16289 c-241 -12 -389 -66 -506 -183 -114 -114 -164 -241 -164
-414 0 -177 55 -310 179 -432 119 -118 218 -160 414 -176 l87 -7 0 -347 0
-346 -142 -18 c-1256 -153 -2451 -669 -3379 -1458 -67 -57 -133 -112 -146
-122 l-25 -19 -121 121 -122 122 717 718 c401 401 722 729 728 745 16 44 12
114 -9 155 -29 57 -324 339 -511 488 -410 329 -836 490 -1370 520 -207 11
-526 -28 -745 -91 -99 -29 -234 -81 -337 -130 l-68 -32 -52 35 c-66 45 -155
84 -243 108 -96 26 -283 26 -380 1 -311 -82 -534 -376 -535 -704 0 -158 39
-290 126 -424 l43 -66 -43 -99 c-85 -193 -147 -401 -181 -604 -21 -127 -32
-496 -17 -592 6 -40 14 -100 18 -133 17 -165 116 -473 210 -656 86 -166 270
-427 413 -584 180 -198 319 -337 356 -355 45 -22 108 -26 152 -9 16 5 346 328
745 727 l718 717 119 -119 119 -119 -111 -121 c-343 -374 -631 -770 -872
-1201 -459 -822 -723 -1706 -805 -2695 -15 -183 -6 -908 14 -1080 80 -706 214
-1240 461 -1835 255 -614 639 -1228 1066 -1706 l77 -86 -196 -219 c-109 -120
-256 -280 -328 -354 -205 -212 -290 -340 -320 -479 -81 -381 249 -738 632
-682 168 24 299 116 511 362 166 190 534 599 541 599 3 0 37 -24 76 -53 324
-244 809 -528 1196 -700 652 -290 1292 -462 2006 -538 175 -19 270 -22 589
-23 209 -1 431 2 494 7 508 34 1078 148 1546 309 630 216 1224 527 1734 908
l125 93 55 -59 c111 -118 379 -421 468 -530 109 -132 239 -257 315 -302 307
-183 698 -40 828 303 31 82 38 227 16 312 -32 129 -102 235 -280 427 -61 66
-178 194 -260 285 -82 91 -185 205 -228 253 l-79 86 87 99 c379 431 735 977
976 1498 596 1287 742 2718 417 4095 -174 738 -478 1438 -899 2075 -204 309
-427 592 -674 857 -42 45 -76 84 -76 87 0 4 54 60 120 126 l120 120 713 -712
c498 -498 723 -717 749 -728 49 -20 104 -19 153 4 57 26 339 320 500 521 357
446 524 949 509 1535 -7 303 -81 619 -210 896 l-36 76 35 54 c91 142 118 227
124 390 7 154 -9 239 -68 360 -131 270 -388 422 -688 406 -155 -8 -277 -49
-403 -133 l-51 -35 -114 51 c-214 95 -453 161 -693 190 -46 5 -167 10 -268 10
-522 0 -946 -145 -1377 -469 -198 -149 -544 -471 -575 -535 -25 -52 -25 -109
-1 -161 13 -28 238 -258 725 -743 388 -387 706 -708 706 -713 0 -6 -55 -64
-121 -129 l-122 -119 -37 32 c-194 166 -348 291 -470 382 -894 664 -1934 1075
-3034 1199 -71 8 -132 19 -135 24 -3 6 -5 161 -3 345 l3 334 77 7 c177 14 312
75 428 190 156 156 210 375 145 586 -28 89 -109 217 -177 279 -65 60 -192 124
-279 141 -66 14 -1167 20 -1395 9z m1290 -370 c124 -20 196 -87 207 -193 11
-105 -39 -200 -131 -249 l-41 -22 -725 0 c-692 0 -727 1 -763 19 -79 39 -125
105 -134 190 -7 70 11 129 54 177 71 79 21 73 753 79 360 3 669 6 685 8 17 1
59 -3 95 -9z m4757 -694 c372 -75 696 -240 962 -491 246 -231 435 -534 541
-868 123 -388 120 -834 -6 -1216 -38 -113 -154 -344 -226 -448 -74 -105 -201
-259 -315 -380 l-78 -83 -1400 1401 c-770 770 -1401 1402 -1403 1404 -4 5 233
220 321 291 270 218 563 349 907 406 197 32 490 26 697 -16z m-10246 20 c356
-47 649 -172 944 -402 95 -74 339 -292 333 -299 -2 -2 -633 -634 -1403 -1404
l-1400 -1401 -83 88 c-341 362 -504 643 -585 1014 -54 244 -61 548 -18 791
109 609 482 1112 1037 1400 223 116 491 196 744 221 92 10 336 5 431 -8z
m-1690 -82 c6 -6 -14 -28 -53 -58 -85 -66 -270 -254 -338 -343 -30 -39 -58
-71 -62 -72 -4 0 -12 25 -18 55 -36 173 106 377 297 425 45 11 161 6 174 -7z
m13225 -22 c86 -40 157 -109 196 -190 28 -57 32 -77 32 -146 1 -127 -7 -129
-89 -29 -79 97 -234 249 -331 326 -36 28 -62 54 -57 59 31 29 168 18 249 -20z
m-6516 -396 l0 -335 -220 0 -220 0 0 335 0 335 220 0 220 0 0 -335z m435 -734
c1128 -130 2114 -534 3025 -1240 311 -241 682 -602 936 -911 660 -801 1104
-1747 1283 -2732 71 -386 93 -645 94 -1063 0 -605 -78 -1134 -253 -1719 -185
-620 -498 -1255 -883 -1796 -142 -198 -346 -446 -500 -607 -44 -45 -104 -109
-135 -142 -145 -153 -438 -405 -685 -589 -590 -439 -1288 -773 -1997 -956
-527 -136 -954 -190 -1505 -190 -356 0 -481 8 -800 50 -1323 174 -2540 772
-3481 1709 -256 255 -436 466 -625 730 -651 914 -1028 1981 -1100 3117 -13
207 -7 767 11 943 76 764 272 1452 601 2115 568 1143 1488 2065 2644 2650 325
164 562 263 875 364 422 137 874 233 1275 270 94 9 186 18 205 20 19 2 215 2
435 1 329 -2 432 -6 580 -24z m-5074 -10537 c18 -19 80 -76 137 -127 56 -50
102 -94 102 -98 0 -3 -88 -105 -196 -225 -108 -121 -230 -260 -270 -310 -189
-235 -313 -320 -424 -292 -55 14 -115 73 -130 126 -27 102 35 210 240 422 56
58 189 203 297 323 107 119 198 217 202 217 4 0 23 -16 42 -36z m9065 -161
c98 -109 238 -260 311 -336 179 -185 234 -264 249 -356 13 -82 -49 -177 -130
-199 -107 -30 -232 54 -415 278 -47 58 -142 168 -211 245 -69 77 -159 178
-200 223 l-75 84 45 41 c25 23 88 81 140 129 52 48 98 88 101 88 4 0 87 -89
185 -197z"/>
<path d="M7605 13509 c-347 -26 -774 -104 -1095 -199 -58 -17 -134 -40 -170
-50 -99 -29 -301 -102 -430 -154 -523 -215 -1005 -506 -1451 -876 -157 -131
-514 -488 -645 -645 -447 -538 -777 -1132 -995 -1787 -376 -1133 -382 -2349
-18 -3467 212 -652 571 -1294 1003 -1800 621 -728 1388 -1265 2282 -1601 148
-56 370 -129 469 -153 33 -9 94 -24 135 -35 392 -105 875 -164 1340 -164 700
0 1341 121 1985 377 1378 546 2519 1683 3075 3065 389 966 490 2066 284 3080
-293 1434 -1136 2698 -2339 3507 -209 141 -383 241 -630 363 -578 285 -1131
447 -1795 526 -160 19 -816 28 -1005 13z m875 -374 c1314 -123 2522 -755 3400
-1779 136 -158 310 -392 421 -566 95 -149 277 -470 311 -548 11 -26 45 -103
75 -171 162 -368 287 -788 353 -1184 39 -239 47 -314 61 -596 25 -475 -26
-971 -146 -1452 -196 -784 -576 -1516 -1109 -2139 -126 -148 -428 -446 -575
-569 -544 -454 -1132 -771 -1794 -970 -779 -234 -1636 -274 -2437 -115 -826
164 -1553 495 -2210 1008 -307 239 -631 565 -877 882 -722 930 -1100 2141
-1043 3349 11 252 28 406 70 655 77 460 246 981 453 1395 123 248 306 542 477
770 277 367 648 739 1007 1007 550 411 1120 686 1829 884 98 27 450 94 594
113 131 18 321 35 485 45 116 7 492 -4 655 -19z"/>
<path d="M7948 12590 c-50 -15 -90 -45 -109 -82 -18 -35 -19 -63 -19 -423 0
-370 1 -387 21 -426 15 -31 33 -46 72 -65 61 -28 96 -30 160 -8 54 18 92 58
107 112 14 52 13 725 -1 777 -25 89 -136 144 -231 115z"/>
<path d="M5769 12006 c-58 -20 -96 -53 -119 -102 -42 -87 -50 -70 309 -691 86
-147 174 -179 293 -104 91 58 109 150 49 256 -336 597 -353 624 -428 644 -48
14 -59 13 -104 -3z"/>
<path d="M10116 12006 c-22 -8 -47 -23 -57 -33 -10 -10 -100 -160 -200 -333
-149 -258 -183 -323 -187 -362 -6 -64 3 -92 44 -138 67 -74 165 -89 242 -37
35 23 80 95 288 462 131 229 125 217 122 277 -3 42 -11 65 -32 92 -51 67 -147
98 -220 72z"/>
<path d="M4755 11433 c-98 -51 -143 -167 -97 -250 18 -33 267 -289 1011 -1038
865 -871 1836 -1858 1834 -1864 -1 -3 -12 -33 -24 -66 -33 -86 -32 -255 0
-338 37 -95 72 -149 135 -212 251 -248 646 -209 836 81 95 145 123 324 72 462
-13 34 -22 69 -20 76 3 14 360 379 1779 1819 145 148 273 283 284 300 45 72
12 189 -69 244 -34 23 -52 28 -102 28 -50 0 -67 -5 -95 -27 -19 -14 -170 -164
-334 -334 -165 -169 -361 -369 -436 -443 -162 -163 -1198 -1218 -1255 -1278
l-39 -42 -60 21 c-87 32 -254 31 -345 -1 l-65 -23 -24 29 c-13 15 -407 415
-875 888 -1432 1448 -1646 1665 -1786 1808 -74 76 -152 147 -172 158 -45 23
-112 24 -153 2z m3350 -3247 c39 -30 75 -94 75 -136 0 -41 -36 -106 -74 -135
-75 -57 -201 -40 -251 33 -33 49 -35 148 -5 197 48 78 179 98 255 41z"/>
<path d="M4142 10399 c-107 -53 -142 -211 -64 -288 32 -32 631 -380 679 -394
70 -22 158 26 198 107 44 89 24 177 -52 228 -60 40 -561 328 -607 349 -54 24
-101 24 -154 -2z"/>
<path d="M11722 10409 c-71 -28 -635 -364 -660 -394 -79 -89 -29 -244 93 -291
75 -28 51 -39 585 268 202 117 225 141 225 233 0 54 -4 69 -30 107 -53 74
-141 106 -213 77z"/>
<path d="M3575 8227 c-81 -33 -118 -88 -118 -177 0 -94 50 -161 135 -180 32
-6 180 -10 392 -9 394 1 408 3 461 78 26 37 30 51 30 110 0 57 -4 74 -27 109
-52 78 -45 77 -468 79 -272 1 -383 -1 -405 -10z"/>
<path d="M11642 8226 c-139 -49 -158 -261 -32 -339 34 -22 41 -22 425 -22 437
0 431 -1 480 73 70 106 22 261 -91 291 -58 16 -738 13 -782 -3z"/>
<path d="M4755 6381 c-29 -7 -143 -71 -514 -286 -179 -105 -200 -127 -202
-218 -2 -75 35 -139 101 -175 89 -47 101 -42 585 241 241 140 259 159 252 254
-8 120 -117 209 -222 184z"/>
<path d="M11155 6375 c-85 -30 -144 -131 -130 -218 11 -60 61 -106 210 -190
72 -41 186 -107 255 -147 208 -121 247 -140 293 -140 55 0 114 34 152 88 26
38 30 53 30 107 0 96 -18 113 -285 267 -457 264 -450 261 -525 233z"/>
<path d="M6086 5020 c-49 -15 -83 -54 -148 -170 -14 -25 -87 -152 -163 -284
-155 -268 -163 -292 -125 -371 27 -56 91 -101 155 -111 47 -7 117 18 147 52
22 26 335 566 366 632 19 42 23 63 18 95 -10 62 -47 111 -107 141 -54 27 -92
31 -143 16z"/>
<path d="M9796 5016 c-43 -16 -91 -58 -112 -98 -8 -15 -14 -51 -14 -79 0 -49
8 -67 122 -263 235 -408 261 -449 298 -470 74 -43 189 -15 247 61 24 31 28 45
28 102 l-1 66 -184 319 c-201 346 -216 364 -302 372 -24 2 -60 -2 -82 -10z"/>
<path d="M7946 4523 c-40 -10 -93 -52 -109 -86 -15 -31 -17 -83 -17 -422 0
-380 0 -388 22 -426 32 -57 110 -94 180 -86 61 8 120 44 145 89 16 30 18 71
21 408 3 414 1 434 -59 484 -45 38 -122 54 -183 39z"/>
<path d="M0 450 l0 -450 8000 0 8000 0 0 450 0 450 -8000 0 -8000 0 0 -450z
m1678 153 c12 -13 22 -33 22 -43 0 -28 -18 -70 -30 -70 -6 0 -8 5 -4 12 5 7
-5 3 -20 -10 -36 -27 -56 -28 -90 -1 -20 15 -26 29 -26 57 0 42 5 52 39 75 31
21 79 12 109 -20z m13297 -54 c4 -6 -1 -17 -11 -25 -14 -11 -15 -17 -6 -20 14
-7 16 -34 2 -34 -5 0 -10 -25 -10 -56 0 -47 -3 -55 -17 -52 -14 2 -19 15 -21
56 -2 28 -7 52 -13 52 -13 0 -11 18 4 36 45 55 60 64 72 43z m-815 -19 c26
-26 28 -124 3 -152 -43 -48 -103 -3 -103 77 0 45 15 73 43 85 32 13 35 12 57
-10z m259 -5 c6 -3 16 -23 22 -44 28 -93 -74 -158 -141 -91 -80 80 22 195 119
135z m1071 -27 l1 -53 24 28 c13 15 31 27 40 27 20 0 19 -9 -6 -36 l-21 -22
26 -39 c23 -33 24 -38 9 -42 -9 -2 -25 8 -36 23 -20 28 -37 26 -37 -5 0 -10
-7 -19 -15 -19 -12 0 -15 17 -15 95 0 78 3 95 15 95 11 0 15 -13 15 -52z
m-2862 -45 c-3 -74 -6 -88 -20 -91 -16 -3 -18 6 -18 87 0 85 1 91 20 91 20 0
21 -5 18 -87z m147 62 c57 -56 18 -143 -68 -152 l-47 -6 0 92 0 91 45 0 c35 0
52 -6 70 -25z m195 -65 c0 -73 -3 -90 -15 -90 -12 0 -15 15 -15 71 0 66 -1 71
-20 66 -31 -8 -24 20 8 31 15 6 30 11 35 11 4 1 7 -39 7 -89z m170 35 c0 -30
5 -55 10 -55 6 0 10 -7 10 -15 0 -8 -4 -15 -10 -15 -5 0 -10 -9 -10 -20 0 -11
-7 -20 -15 -20 -8 0 -15 9 -15 20 0 17 -7 20 -40 20 -50 0 -50 9 -4 83 23 37
42 57 55 57 16 0 19 -7 19 -55z m140 48 c0 -5 -14 -16 -30 -25 -39 -22 -38
-33 2 -33 41 0 61 -33 46 -76 -11 -32 -51 -48 -77 -32 -66 41 -40 173 34 173
14 0 25 -3 25 -7z m150 -47 c0 -43 4 -55 17 -58 16 -3 16 -4 0 -20 -9 -9 -17
-24 -17 -32 0 -9 -7 -16 -15 -16 -8 0 -15 9 -15 20 0 17 -7 20 -40 20 -22 0
-40 5 -40 10 0 23 76 130 92 130 15 0 18 -9 18 -54z m140 45 c0 -5 -9 -13 -20
-16 -11 -3 -24 -14 -29 -24 -8 -15 -5 -16 25 -13 28 4 35 0 46 -22 27 -61 -33
-118 -86 -82 -54 35 -23 166 40 166 13 0 24 -4 24 -9z m173 2 c8 -15 -72 -173
-88 -173 -19 0 -20 -3 15 75 17 37 30 71 30 76 0 5 -18 9 -40 9 -22 0 -40 5
-40 10 0 12 117 14 123 3z m127 -2 c0 -5 -10 -13 -22 -17 -22 -6 -38 -21 -38
-35 0 -3 11 -4 25 -1 34 6 55 -14 55 -54 0 -57 -61 -83 -101 -43 -29 29 -23
114 11 141 23 19 70 25 70 9z m130 -81 c0 -73 -3 -90 -15 -90 -12 0 -15 15
-15 71 0 71 0 71 -25 65 -35 -9 -33 17 3 31 51 20 52 19 52 -77z m1040 65 c0
-8 5 -15 10 -15 6 0 10 -7 10 -15 0 -8 -4 -15 -10 -15 -5 0 -10 -18 -10 -40 0
-22 5 -40 10 -40 6 0 10 -7 10 -15 0 -22 -37 -18 -50 4 -5 11 -10 36 -10 55 0
20 -4 36 -10 36 -5 0 -10 7 -10 15 0 8 5 15 10 15 6 0 10 7 10 15 0 8 9 15 20
15 11 0 20 -7 20 -15z m-14680 -94 c0 -84 -3 -102 -21 -125 -46 -59 -139 -17
-139 62 0 46 40 95 74 90 32 -5 32 -36 2 -44 -45 -11 -47 -84 -2 -92 36 -7 46
16 46 114 0 87 1 94 20 94 19 0 20 -7 20 -99z m14274 63 c9 -8 16 -20 16 -25
0 -13 -24 -11 -37 2 -19 19 -43 2 -43 -31 0 -33 24 -50 43 -31 13 13 37 15 37
2 0 -18 -31 -41 -54 -41 -31 0 -59 34 -59 70 0 57 61 91 97 54z m116 0 c0 -7
-9 -16 -20 -19 -16 -5 -20 -15 -20 -56 0 -42 -3 -49 -20 -49 -18 0 -20 7 -20
69 l0 68 40 0 c26 0 40 -4 40 -13z m108 4 c5 -7 12 -39 14 -70 l5 -57 -41 1
c-50 0 -76 13 -76 36 0 26 20 42 52 42 19 0 28 5 28 16 0 13 -7 15 -35 10 -36
-7 -44 1 -23 22 16 16 63 15 76 0z m322 -8 c11 -11 20 -29 20 -40 0 -17 -7
-20 -46 -20 -41 0 -45 -2 -33 -16 9 -11 22 -14 41 -10 20 4 28 2 28 -9 0 -22
-49 -31 -79 -14 -37 21 -42 90 -9 113 30 21 54 20 78 -4z m117 4 c2 -6 -8 -16
-22 -22 -23 -11 -26 -17 -23 -55 2 -33 -1 -42 -15 -45 -15 -3 -17 6 -17 67 l0
70 37 -2 c20 -2 38 -8 40 -13z m111 0 c16 -11 22 -25 22 -54 0 -62 -58 -92
-100 -50 -38 38 -13 120 38 120 10 0 28 -7 40 -16z m273 6 c32 -18 23 -33 -16
-26 -44 9 -45 -6 -2 -25 42 -19 45 -59 5 -73 -32 -11 -78 5 -78 29 0 11 5 13
26 5 32 -13 54 -13 54 -1 0 5 -16 15 -35 21 -19 6 -35 13 -35 15 0 2 -3 10 -6
18 -13 34 45 59 87 37z m-14244 -19 c4 -16 15 -21 52 -23 38 -3 46 -6 46 -23
0 -17 -8 -20 -47 -23 -47 -3 -48 -4 -48 -36 0 -35 22 -62 40 -51 6 4 15 18 21
32 5 13 15 23 22 21 20 -7 19 -43 -3 -71 -26 -33 -65 -35 -97 -5 -20 19 -23
31 -23 103 0 45 3 85 7 88 12 13 25 7 30 -12z m-948 -35 c10 -12 7 -18 -13
-31 -21 -14 -26 -26 -28 -73 -2 -45 -7 -58 -20 -60 -16 -3 -18 5 -18 64 0 56
4 72 22 91 25 27 41 29 57 9z m169 -2 c30 -21 28 -34 -13 -74 -30 -30 -35 -31
-41 -15 -4 10 -2 26 5 36 9 15 8 19 -4 19 -8 0 -19 -9 -25 -21 -9 -16 -8 -26
5 -45 12 -19 24 -24 60 -24 47 0 64 -13 46 -34 -11 -13 -50 -13 -109 0 -29 6
-57 63 -48 99 9 36 50 75 78 75 13 0 34 -7 46 -16z m207 -9 c25 -24 30 -48 25
-115 -3 -45 -9 -54 -26 -39 -8 7 -13 29 -13 59 2 57 -5 70 -35 70 -52 0 -60
-71 -11 -90 26 -10 34 -35 13 -43 -22 -7 -59 15 -74 44 -22 43 -17 77 15 110
36 36 73 37 106 4z m175 15 c14 -7 25 -7 38 1 31 20 71 3 88 -36 18 -44 18
-106 0 -131 -20 -27 -30 -11 -36 59 -4 54 -8 62 -25 62 -18 0 -20 -8 -23 -63
-3 -53 -6 -63 -20 -60 -13 2 -18 17 -22 63 -4 48 -9 61 -24 63 -26 5 -36 -15
-34 -70 2 -53 -3 -63 -27 -55 -10 5 -15 20 -15 51 0 96 43 146 100 116z m323
-4 c7 -17 -11 -36 -35 -36 -14 0 -18 -8 -18 -36 0 -36 -15 -73 -34 -86 -6 -4
-24 -8 -39 -8 -22 0 -28 4 -25 17 2 10 12 19 23 22 27 5 35 19 35 64 0 24 7
44 20 57 23 23 65 27 73 6z m262 -77 c0 -72 -2 -84 -17 -87 -16 -3 -18 6 -18
81 0 46 3 87 7 91 19 19 28 -7 28 -85z m170 80 c6 0 21 3 35 6 18 5 34 0 50
-13 22 -18 25 -28 25 -88 0 -57 -3 -69 -17 -72 -15 -3 -18 4 -18 46 0 63 -7
82 -31 82 -17 0 -19 -8 -19 -60 0 -46 -4 -62 -16 -67 -23 -9 -34 15 -34 75 0
50 -2 53 -22 50 -20 -3 -24 -10 -28 -63 -4 -47 -9 -61 -22 -63 -16 -3 -18 5
-18 67 0 64 2 71 27 91 19 15 35 20 53 15 14 -3 30 -6 35 -6z m279 0 c14 -7
27 -17 30 -24 5 -14 -50 -85 -66 -85 -18 0 -20 31 -3 50 17 19 17 20 -3 20
-15 0 -24 -8 -28 -27 -9 -36 7 -57 47 -63 22 -3 35 -11 37 -22 3 -15 -4 -18
-42 -18 -36 0 -48 5 -65 26 -37 47 -25 114 24 142 26 15 38 15 69 1z m274 -5
c26 -18 29 -49 6 -58 -11 -4 -22 1 -31 14 -8 11 -21 20 -29 20 -20 0 -38 -43
-30 -73 8 -34 32 -41 57 -16 21 21 49 19 49 -3 0 -19 -12 -33 -37 -47 -32 -16
-57 -14 -87 10 -22 17 -26 28 -26 73 0 39 5 58 20 74 25 26 75 29 108 6z m179
-6 c33 -31 33 -109 -2 -143 -33 -33 -70 -32 -106 4 -23 23 -29 38 -29 71 0 78
82 119 137 68z m179 11 c8 -7 14 -6 19 1 3 5 22 10 40 10 51 0 67 -30 63 -116
-3 -61 -5 -69 -23 -69 -18 0 -21 8 -25 70 -4 62 -7 70 -25 70 -18 0 -21 -8
-25 -70 -4 -62 -7 -70 -25 -70 -18 0 -21 8 -25 70 -4 62 -7 70 -25 70 -18 0
-21 -8 -25 -70 -4 -62 -7 -70 -25 -70 -18 0 -20 8 -23 79 -2 44 -1 84 2 91 5
14 106 18 122 4z m-522 -136 c10 -26 -23 -48 -42 -29 -8 8 -12 22 -9 30 8 21
43 20 51 -1z"/>
<path d="M1577 592 c-36 -39 -13 -97 35 -90 29 4 39 54 13 65 -18 6 -38 -15
-28 -30 3 -5 9 -3 14 4 10 17 23 5 16 -16 -10 -25 -46 -18 -53 11 -10 39 26
72 60 56 15 -7 29 -24 35 -44 7 -26 9 -28 10 -10 1 27 -40 72 -67 72 -10 0
-26 -8 -35 -18z"/>
<path d="M14104 506 c-3 -7 -4 -35 -2 -62 3 -41 6 -49 23 -49 17 0 20 8 23 48
3 46 -9 77 -30 77 -5 0 -11 -6 -14 -14z"/>
<path d="M14310 510 c-24 -24 -26 -77 -4 -108 11 -15 25 -22 50 -22 45 0 74
29 74 75 0 65 -75 100 -120 55z m80 -15 c7 -9 9 -19 5 -23 -4 -4 -10 -1 -12 6
-7 19 -41 14 -48 -8 -5 -17 9 -60 20 -60 2 0 11 7 20 16 20 20 33 10 15 -11
-19 -23 -53 -14 -68 18 -12 24 -11 31 2 53 19 27 47 31 66 9z"/>
<path d="M12700 454 c0 -49 3 -64 14 -64 24 0 46 30 46 63 0 39 -8 52 -37 59
-22 6 -23 4 -23 -58z"/>
<path d="M13080 461 c-14 -27 -13 -31 10 -31 15 0 20 7 20 25 0 30 -15 33 -30
6z"/>
<path d="M13231 451 c-7 -5 -11 -19 -9 -32 4 -31 42 -33 46 -3 4 25 -19 46
-37 35z"/>
<path d="M13377 460 c-18 -29 -18 -30 2 -30 17 0 21 6 21 30 0 17 -1 30 -3 30
-1 0 -11 -13 -20 -30z"/>
<path d="M13515 440 c-3 -6 -3 -19 0 -31 10 -29 39 -20 43 14 3 21 -1 27 -17
27 -11 0 -23 -5 -26 -10z"/>
<path d="M13816 447 c-15 -11 -17 -17 -7 -35 15 -28 38 -28 46 -1 10 31 -15
54 -39 36z"/>
<path d="M14813 423 c-18 -6 -16 -33 1 -33 19 0 31 19 20 30 -5 4 -15 5 -21 3z"/>
<path d="M15120 455 c0 -8 9 -15 20 -15 11 0 20 7 20 15 0 8 -9 15 -20 15 -11
0 -20 -7 -20 -15z"/>
<path d="M15345 450 c-9 -29 4 -60 25 -60 10 0 22 9 25 20 9 29 -4 60 -25 60
-10 0 -22 -9 -25 -20z"/>
<path d="M2452 398 c-19 -19 -15 -76 6 -87 23 -12 39 -2 47 31 12 48 -24 85
-53 56z"/>
</g>
</svg>
